<svg width="25" height="25" viewBox="0 0 25 25" fill="none" xmlns="http://www.w3.org/2000/svg">
<path d="M12.0519 2.83508C6.53794 2.83508 2.05194 7.32108 2.05194 12.8351C2.05194 18.3491 6.53794 22.8351 12.0519 22.8351C17.5659 22.8351 22.0519 18.3491 22.0519 12.8351C22.0519 7.32108 17.5659 2.83508 12.0519 2.83508ZM10.0529 17.2481L7.04739 14.249C6.65664 13.8591 6.65585 13.2263 7.04563 12.8354C7.43565 12.4443 8.06895 12.4435 8.45987 12.8338L10.0509 14.4221L14.6379 9.83508C15.0284 9.44462 15.6615 9.44462 16.0519 9.83508C16.4424 10.2255 16.4424 10.8586 16.0519 11.2491L10.0529 17.2481Z" fill="#2FAB73"/>
</svg>
