<svg width="44" height="40" viewBox="0 0 44 40" fill="none" xmlns="http://www.w3.org/2000/svg">
<path d="M29.5343 3.5606C29.4492 4.0606 29.4066 4.5606 29.4066 5.0606C29.4066 9.5606 33.2806 13.1986 38.0486 13.1986C38.5807 13.1986 39.0916 13.1406 39.6237 13.0606V29.1986C39.6237 35.9806 35.3666 40.0006 28.1295 40.0006H12.4014C5.16217 40.0006 0.905029 35.9806 0.905029 29.1986V14.4006C0.905029 7.6006 5.16217 3.5606 12.4014 3.5606H29.5343ZM29.9622 15.7206C29.3853 15.6606 28.8127 15.9006 28.47 16.3406L23.321 22.6006L17.4227 18.2406C17.0609 17.9806 16.6352 17.8786 16.2095 17.9206C15.7859 17.9806 15.4027 18.1986 15.1452 18.5186L8.84673 26.2206L8.71689 26.4006C8.35503 27.0386 8.52531 27.8586 9.16389 28.3006C9.46189 28.4806 9.78117 28.6006 10.143 28.6006C10.6347 28.6206 11.1009 28.3786 11.3989 28.0006L16.7416 21.5386L22.808 25.8206L22.9996 25.9386C23.6807 26.2786 24.5322 26.1206 25.0217 25.5186L31.1733 18.0606L31.0882 18.1006C31.4287 17.6606 31.4926 17.1006 31.2585 16.6006C31.0264 16.1006 30.5135 15.7606 29.9622 15.7206ZM38.3468 0C41.1778 0 43.4767 2.16 43.4767 4.82C43.4767 7.48 41.1778 9.64 38.3468 9.64C35.5158 9.64 33.217 7.48 33.217 4.82C33.217 2.16 35.5158 0 38.3468 0Z" fill="black"/>
</svg>
