<svg width="41" height="40" viewBox="0 0 41 40" fill="none" xmlns="http://www.w3.org/2000/svg">
<path d="M20.9407 0C31.9639 0 40.9407 8.9725 40.9407 20.0116C40.9407 31.0275 31.9639 40 20.9407 40C9.91757 40 0.940735 31.0275 0.940735 20.0116C0.940735 8.9725 9.91757 0 20.9407 0ZM18.6627 12.0598C18.238 12.0598 17.8326 12.1563 17.4465 12.3493C16.9639 12.6194 16.5778 13.0439 16.3654 13.5456C16.2303 13.8929 16.018 14.9349 16.018 14.9542C15.8056 16.0926 15.6898 17.945 15.6898 19.9904C15.6898 21.9411 15.8056 23.7144 15.9793 24.8722C15.9987 24.8915 16.211 26.1843 16.4427 26.6281C16.8674 27.4385 17.6975 27.9402 18.5855 27.9402H18.6627C19.2419 27.9209 20.4581 27.4192 20.4581 27.3999C22.5044 26.5509 26.5392 23.9074 28.1608 22.1515L28.2766 22.0357C28.489 21.8234 28.7593 21.4954 28.8172 21.4182C29.1261 21.013 29.2805 20.5113 29.2805 20.0116C29.2805 19.4501 29.1068 18.9291 28.7786 18.5046C28.7014 18.4274 28.4118 18.0994 28.1415 17.8292C26.5585 16.1312 22.4272 13.3526 20.2651 12.5036C19.9369 12.3705 19.1068 12.0791 18.6627 12.0598Z" fill="#5F6064"/>
</svg>
