<svg width="78" height="71" viewBox="0 0 78 71" fill="none" xmlns="http://www.w3.org/2000/svg">
<path d="M56.8515 0.933838C69.855 0.933838 77.196 7.68534 77.2342 19.5888V52.2788C77.2342 64.1788 69.855 70.9338 56.8515 70.9338H21.1445C8.14102 70.9338 0.765625 64.1788 0.765625 52.2788V19.5888C0.765625 7.68534 8.14102 0.933838 21.1445 0.933838H56.8515ZM40.9116 15.3888C39.8372 14.7938 38.5373 14.7938 37.5088 15.3888C36.4726 15.9803 35.9029 17.0688 36.0138 18.1538V53.8188C36.2088 55.3238 37.5814 56.4438 39.1873 56.4438C40.8352 56.4438 42.2078 55.3238 42.3607 53.8188V18.1538C42.5136 17.0688 41.944 15.9803 40.9116 15.3888ZM23.0562 26.8688C22.0239 26.2738 20.7201 26.2738 19.6916 26.8688C18.6554 27.4638 18.0858 28.5453 18.2005 29.6338V53.8188C18.3496 55.3238 19.726 56.4438 21.3701 56.4438C23.018 56.4438 24.3906 55.3238 24.5435 53.8188V29.6338C24.6621 28.5453 24.0847 27.4638 23.0562 26.8688ZM58.4573 39.5738C57.4288 38.9788 56.1289 38.9788 55.0583 39.5738C54.0222 40.1688 53.4525 41.2153 53.6054 42.3388V53.8188C53.7583 55.3238 55.131 56.4438 56.7789 56.4438C58.3847 56.4438 59.7573 55.3238 59.9523 53.8188V42.3388C60.0632 41.2153 59.4935 40.1688 58.4573 39.5738Z" fill="#F9783B"/>
</svg>
