<svg width="16" height="14" viewBox="0 0 16 14" fill="none" xmlns="http://www.w3.org/2000/svg">
<path d="M12.6344 8.3725C12.4391 8.55029 12.3494 8.80742 12.3939 9.05958L13.0641 12.5446C13.1206 12.84 12.9879 13.1389 12.7248 13.3096C12.467 13.4867 12.124 13.5079 11.8428 13.3663L8.50391 11.73C8.38781 11.6719 8.2589 11.6408 8.12697 11.6372H7.92267C7.85181 11.6471 7.78245 11.6684 7.71913 11.701L4.37949 13.345C4.21439 13.4229 4.02743 13.4505 3.84424 13.4229C3.39795 13.3436 3.10017 12.9441 3.1733 12.5226L3.84424 9.03763C3.88872 8.78333 3.79901 8.52479 3.60376 8.34417L0.881535 5.865C0.653867 5.65746 0.574711 5.34579 0.678744 5.06458C0.779763 4.78408 1.03759 4.57938 1.34893 4.53333L5.09566 4.02263C5.38063 3.995 5.63091 3.83208 5.75907 3.59125L7.41004 0.410833C7.44924 0.34 7.49975 0.274833 7.56082 0.219583L7.62866 0.17C7.66409 0.133167 7.7048 0.102708 7.75004 0.0779167L7.83221 0.0495833L7.96037 0H8.27774C8.5612 0.027625 8.81073 0.187 8.94115 0.425L10.614 3.59125C10.7346 3.82288 10.9691 3.98367 11.2397 4.02263L14.9864 4.53333C15.3031 4.57583 15.5677 4.78125 15.6724 5.06458C15.7712 5.34863 15.686 5.66029 15.4538 5.865L12.6344 8.3725Z" fill="#FEBB43"/>
</svg>
