<svg width="91" height="234" viewBox="0 0 91 234" fill="none" xmlns="http://www.w3.org/2000/svg">
<g clip-path="url(#clip0_1_656)">
<path d="M1.2412 143.218C1.52557 144.681 2.01623 146.13 2.05077 147.594C2.3329 161.205 5.81317 174.083 10.2906 186.703C14.278 197.954 19.7356 208.386 27.1812 217.574C30.0803 221.148 33.3135 224.423 36.6812 228.163C30.5711 228.818 24.3734 228.157 19.0416 232.087C24.6863 231.629 30.348 230.637 35.9661 230.86C41.5951 231.084 47.1911 232.51 53.3047 233.49C48.5068 225.21 41.8487 217.866 43.2754 207.124C39.7244 210.981 40.5621 214.845 47.6547 229.623C44.6458 229.638 41.9943 229.536 39.5858 227.4C26.0434 215.415 17.1981 200.199 11.3004 182.937C7.85548 172.851 5.56997 162.436 4.3367 151.854C3.08023 141.102 2.65993 130.32 3.53133 119.424C4.70495 104.585 7.25048 90.1099 11.9072 76.0699C17.4214 59.4566 25.3593 44.2412 37.0778 31.536C50.1304 17.3658 65.7642 7.66904 84.3805 3.63441C85.519 3.38602 86.6455 3.02419 87.7503 2.65119C87.9777 2.56973 88.1158 2.21655 88.4167 1.83925C87.8602 0.311366 86.6036 0.719748 85.5734 0.921782C75.423 2.89538 65.9296 6.71388 57.015 12.1168C38.721 23.1879 25.7946 39.3666 16.3625 58.8641C8.84027 74.4164 4.73842 91.0402 2.16155 108.139C1.70986 111.14 1.97606 114.249 1.79633 117.293C1.72086 118.599 1.30847 119.886 1.05901 121.171C1.11247 128.516 1.17678 135.862 1.2412 143.218Z" fill="black" fill-opacity="0.6"/>
</g>
<defs>
<clipPath id="clip0_1_656">
<rect width="88.41" height="232.459" fill="white" transform="matrix(-0.999962 0.00875574 0.00875574 0.999962 88.4067 0.704102)"/>
</clipPath>
</defs>
</svg>
